<svg xmlns="http://www.w3.org/2000/svg" xmlns:xlink="http://www.w3.org/1999/xlink" width="500" zoomAndPan="magnify" viewBox="0 0 375 374.999991" height="500" preserveAspectRatio="xMidYMid meet" version="1.0"><defs><clipPath id="314dc8b4cc"><path d="M 112 249 L 167 249 L 167 303 L 112 303 Z M 112 249 " clip-rule="nonzero"/></clipPath><clipPath id="ecf1e361f9"><path d="M 176.867188 279.324219 L 135.894531 313.160156 L 102.058594 272.1875 L 143.03125 238.351562 Z M 176.867188 279.324219 " clip-rule="nonzero"/></clipPath><clipPath id="4b19c8feb0"><path d="M 156.382812 296.242188 C 145.066406 305.585938 128.320312 303.988281 118.976562 292.671875 C 109.632812 281.359375 111.230469 264.613281 122.546875 255.269531 C 133.859375 245.925781 150.605469 247.523438 159.949219 258.835938 C 169.292969 270.152344 167.695312 286.898438 156.382812 296.242188 Z M 156.382812 296.242188 " clip-rule="nonzero"/></clipPath><clipPath id="35e8016006"><path d="M 0 0 L 55 0 L 55 54 L 0 54 Z M 0 0 " clip-rule="nonzero"/></clipPath><clipPath id="8cf3b4d7d0"><path d="M 64.867188 30.324219 L 23.894531 64.160156 L -9.941406 23.1875 L 31.03125 -10.648438 Z M 64.867188 30.324219 " clip-rule="nonzero"/></clipPath><clipPath id="0f5dedad13"><path d="M 44.382812 47.242188 C 33.066406 56.585938 16.320312 54.988281 6.976562 43.671875 C -2.367188 32.359375 -0.769531 15.613281 10.546875 6.269531 C 21.859375 -3.074219 38.605469 -1.476562 47.949219 9.835938 C 57.292969 21.152344 55.695312 37.898438 44.382812 47.242188 Z M 44.382812 47.242188 " clip-rule="nonzero"/></clipPath><clipPath id="92f625e5ce"><rect x="0" width="55" y="0" height="54"/></clipPath><clipPath id="3946e24d55"><path d="M 112 249 L 167 249 L 167 303 L 112 303 Z M 112 249 " clip-rule="nonzero"/></clipPath><clipPath id="959cf99a01"><path d="M 176.867188 279.324219 L 135.808594 313.230469 L 101.902344 272.171875 L 142.960938 238.265625 Z M 176.867188 279.324219 " clip-rule="nonzero"/></clipPath><clipPath id="ddcb4b9d3b"><path d="M 176.867188 279.324219 L 134.574219 314.25 L 99.648438 271.957031 L 141.941406 237.027344 Z M 176.867188 279.324219 " clip-rule="nonzero"/></clipPath><clipPath id="664c00b2a7"><path d="M 156.382812 296.238281 C 145.070312 305.582031 128.328125 303.984375 118.984375 292.671875 C 109.640625 281.359375 111.238281 264.613281 122.550781 255.269531 C 133.863281 245.929688 150.609375 247.523438 159.953125 258.839844 C 169.292969 270.152344 167.699219 286.894531 156.382812 296.238281 Z M 156.382812 296.238281 " clip-rule="nonzero"/></clipPath><clipPath id="3d10130f66"><path d="M 84 216 L 160 216 L 160 291 L 84 291 Z M 84 216 " clip-rule="nonzero"/></clipPath><clipPath id="40fb8a8bca"><path d="M 125.957031 216.035156 L 159.007812 257.644531 L 117.402344 290.695312 L 84.347656 249.089844 Z M 125.957031 216.035156 " clip-rule="nonzero"/></clipPath><clipPath id="6f97fa4537"><path d="M 0.238281 0 L 75.121094 0 L 75.121094 74.878906 L 0.238281 74.878906 Z M 0.238281 0 " clip-rule="nonzero"/></clipPath><clipPath id="07b8cb9530"><path d="M 41.957031 0.0351562 L 75.007812 41.644531 L 33.402344 74.695312 L 0.347656 33.089844 Z M 41.957031 0.0351562 " clip-rule="nonzero"/></clipPath><clipPath id="14637096ab"><rect x="0" width="76" y="0" height="75"/></clipPath><clipPath id="c4a9760784"><path d="M 84 216 L 160 216 L 160 291 L 84 291 Z M 84 216 " clip-rule="nonzero"/></clipPath><clipPath id="311f32d4b8"><path d="M 125.957031 216.035156 L 159.078125 257.730469 L 117.382812 290.851562 L 84.261719 249.15625 Z M 125.957031 216.035156 " clip-rule="nonzero"/></clipPath><clipPath id="cf2fc8c711"><path d="M 125.957031 216.035156 L 159.007812 257.640625 L 117.402344 290.6875 L 84.351562 249.085938 Z M 125.957031 216.035156 " clip-rule="nonzero"/></clipPath><clipPath id="5d2737e65d"><path d="M 92 224 L 156 224 L 156 289 L 92 289 Z M 92 224 " clip-rule="nonzero"/></clipPath><clipPath id="478093b1af"><path d="M 125.59375 224.09375 L 155.5 261.746094 L 122.070312 288.300781 L 92.164062 250.648438 Z M 125.59375 224.09375 " clip-rule="nonzero"/></clipPath><clipPath id="320dbc903d"><path d="M 0.160156 0 L 63.519531 0 L 63.519531 64.480469 L 0.160156 64.480469 Z M 0.160156 0 " clip-rule="nonzero"/></clipPath><clipPath id="92ec832c21"><path d="M 33.59375 0.09375 L 63.5 37.746094 L 30.070312 64.300781 L 0.164062 26.648438 Z M 33.59375 0.09375 " clip-rule="nonzero"/></clipPath><clipPath id="cefc65a476"><rect x="0" width="64" y="0" height="65"/></clipPath><clipPath id="ff4595ce38"><path d="M 57 179 L 111 179 L 111 234 L 57 234 Z M 57 179 " clip-rule="nonzero"/></clipPath><clipPath id="b293ea893e"><path d="M 80.070312 243.871094 L 47.019531 202.261719 L 88.628906 169.210938 L 121.679688 210.816406 Z M 80.070312 243.871094 " clip-rule="nonzero"/></clipPath><clipPath id="608ba05512"><path d="M 63.546875 223.066406 C 54.417969 211.578125 56.332031 194.863281 67.824219 185.734375 C 79.3125 176.609375 96.027344 178.523438 105.152344 190.011719 C 114.28125 201.503906 112.367188 218.214844 100.875 227.34375 C 89.386719 236.472656 72.671875 234.554688 63.546875 223.066406 Z M 63.546875 223.066406 " clip-rule="nonzero"/></clipPath><clipPath id="cd17d4640b"><path d="M 0 0 L 54 0 L 54 55 L 0 55 Z M 0 0 " clip-rule="nonzero"/></clipPath><clipPath id="d6b2450e48"><path d="M 23.070312 64.871094 L -9.980469 23.261719 L 31.628906 -9.789062 L 64.679688 31.816406 Z M 23.070312 64.871094 " clip-rule="nonzero"/></clipPath><clipPath id="b9248f015c"><path d="M 6.546875 44.066406 C -2.582031 32.578125 -0.667969 15.863281 10.824219 6.734375 C 22.3125 -2.390625 39.027344 -0.476562 48.152344 11.011719 C 57.28125 22.503906 55.367188 39.214844 43.875 48.34375 C 32.386719 57.472656 15.671875 55.554688 6.546875 44.066406 Z M 6.546875 44.066406 " clip-rule="nonzero"/></clipPath><clipPath id="6806a1167c"><rect x="0" width="54" y="0" height="55"/></clipPath><clipPath id="8dc1bc7c08"><path d="M 64 191 L 134 191 L 134 259 L 64 259 Z M 64 191 " clip-rule="nonzero"/></clipPath><clipPath id="7d299f9ad2"><path d="M 91.546875 258.316406 L 64.8125 224.65625 L 106.417969 191.605469 L 133.15625 225.261719 Z M 91.546875 258.316406 " clip-rule="nonzero"/></clipPath><clipPath id="0299610a8b"><path d="M 0.800781 0.519531 L 69.199219 0.519531 L 69.199219 67.480469 L 0.800781 67.480469 Z M 0.800781 0.519531 " clip-rule="nonzero"/></clipPath><clipPath id="b05c301302"><path d="M 27.546875 67.316406 L 0.8125 33.65625 L 42.417969 0.605469 L 69.15625 34.261719 Z M 27.546875 67.316406 " clip-rule="nonzero"/></clipPath><clipPath id="1ae6b964c6"><rect x="0" width="70" y="0" height="68"/></clipPath><clipPath id="31e37a930b"><path d="M 151.296875 64.566406 L 310.886719 64.566406 L 310.886719 255.945312 L 151.296875 255.945312 Z M 151.296875 64.566406 " clip-rule="nonzero"/></clipPath><clipPath id="fe9260abf7"><path d="M 173.796875 64.566406 L 288.386719 64.566406 C 300.8125 64.566406 310.886719 74.640625 310.886719 87.066406 L 310.886719 233.078125 C 310.886719 245.507812 300.8125 255.578125 288.386719 255.578125 L 173.796875 255.578125 C 161.371094 255.578125 151.296875 245.507812 151.296875 233.078125 L 151.296875 87.066406 C 151.296875 74.640625 161.371094 64.566406 173.796875 64.566406 Z M 173.796875 64.566406 " clip-rule="nonzero"/></clipPath><clipPath id="f55273e5db"><path d="M 0.296875 0.566406 L 159.886719 0.566406 L 159.886719 191.601562 L 0.296875 191.601562 Z M 0.296875 0.566406 " clip-rule="nonzero"/></clipPath><clipPath id="972682b091"><path d="M 22.796875 0.566406 L 137.386719 0.566406 C 149.8125 0.566406 159.886719 10.640625 159.886719 23.066406 L 159.886719 169.078125 C 159.886719 181.507812 149.8125 191.578125 137.386719 191.578125 L 22.796875 191.578125 C 10.371094 191.578125 0.296875 181.507812 0.296875 169.078125 L 0.296875 23.066406 C 0.296875 10.640625 10.371094 0.566406 22.796875 0.566406 Z M 22.796875 0.566406 " clip-rule="nonzero"/></clipPath><clipPath id="a3191a5702"><rect x="0" width="160" y="0" height="192"/></clipPath><clipPath id="dcb30a07e1"><path d="M 172.390625 54.953125 L 289.792969 54.953125 L 289.792969 108.09375 L 172.390625 108.09375 Z M 172.390625 54.953125 " clip-rule="nonzero"/></clipPath><clipPath id="8d17fc4919"><path d="M 0.390625 0.953125 L 117.792969 0.953125 L 117.792969 54.09375 L 0.390625 54.09375 Z M 0.390625 0.953125 " clip-rule="nonzero"/></clipPath><clipPath id="9b62574b53"><rect x="0" width="118" y="0" height="55"/></clipPath><clipPath id="51a52b1cce"><path d="M 161.945312 0 L 300.371094 0 L 300.371094 42.289062 L 161.945312 42.289062 Z M 161.945312 0 " clip-rule="nonzero"/></clipPath><clipPath id="babe8b9ec5"><path d="M 169.445312 0 L 292.742188 0 C 296.882812 0 300.242188 3.359375 300.242188 7.5 L 300.242188 34.789062 C 300.242188 38.929688 296.882812 42.289062 292.742188 42.289062 L 169.445312 42.289062 C 165.300781 42.289062 161.945312 38.929688 161.945312 34.789062 L 161.945312 7.5 C 161.945312 3.359375 165.300781 0 169.445312 0 Z M 169.445312 0 " clip-rule="nonzero"/></clipPath><clipPath id="13c3b29574"><path d="M 0.945312 0 L 139.371094 0 L 139.371094 42.289062 L 0.945312 42.289062 Z M 0.945312 0 " clip-rule="nonzero"/></clipPath><clipPath id="0b002cc3c0"><path d="M 8.445312 0 L 131.742188 0 C 135.882812 0 139.242188 3.359375 139.242188 7.5 L 139.242188 34.789062 C 139.242188 38.929688 135.882812 42.289062 131.742188 42.289062 L 8.445312 42.289062 C 4.300781 42.289062 0.945312 38.929688 0.945312 34.789062 L 0.945312 7.5 C 0.945312 3.359375 4.300781 0 8.445312 0 Z M 8.445312 0 " clip-rule="nonzero"/></clipPath><clipPath id="a10fe53b1c"><rect x="0" width="140" y="0" height="43"/></clipPath><clipPath id="f8e2a69d69"><path d="M 191 281 L 245 281 L 245 336 L 191 336 Z M 191 281 " clip-rule="nonzero"/></clipPath><clipPath id="4ce529bfbf"><path d="M 232.574219 273.898438 L 252.710938 323.074219 L 203.535156 343.210938 L 183.398438 294.035156 Z M 232.574219 273.898438 " clip-rule="nonzero"/></clipPath><clipPath id="ae32ded86b"><path d="M 242.640625 298.484375 C 248.203125 312.0625 241.703125 327.582031 228.125 333.140625 C 214.542969 338.703125 199.027344 332.203125 193.46875 318.625 C 187.90625 305.042969 194.40625 289.527344 207.984375 283.96875 C 221.5625 278.40625 237.082031 284.90625 242.640625 298.484375 Z M 242.640625 298.484375 " clip-rule="nonzero"/></clipPath><clipPath id="3b6e2e68e4"><path d="M 0 0 L 54 0 L 54 55 L 0 55 Z M 0 0 " clip-rule="nonzero"/></clipPath><clipPath id="27f2c01b93"><path d="M 41.574219 -7.101562 L 61.710938 42.074219 L 12.535156 62.210938 L -7.601562 13.035156 Z M 41.574219 -7.101562 " clip-rule="nonzero"/></clipPath><clipPath id="fb880394dc"><path d="M 51.640625 17.484375 C 57.203125 31.0625 50.703125 46.582031 37.125 52.140625 C 23.542969 57.703125 8.027344 51.203125 2.46875 37.625 C -3.09375 24.042969 3.40625 8.527344 16.984375 2.96875 C 30.5625 -2.59375 46.082031 3.90625 51.640625 17.484375 Z M 51.640625 17.484375 " clip-rule="nonzero"/></clipPath><clipPath id="ecd7c0e16c"><rect x="0" width="54" y="0" height="55"/></clipPath><clipPath id="817cb955fa"><path d="M 191 281 L 245 281 L 245 336 L 191 336 Z M 191 281 " clip-rule="nonzero"/></clipPath><clipPath id="8b49831f36"><path d="M 232.574219 273.898438 L 252.753906 323.175781 L 203.476562 343.355469 L 183.292969 294.078125 Z M 232.574219 273.898438 " clip-rule="nonzero"/></clipPath><clipPath id="0a30868075"><path d="M 232.574219 273.898438 L 253.359375 324.65625 L 202.601562 345.445312 L 181.8125 294.6875 Z M 232.574219 273.898438 " clip-rule="nonzero"/></clipPath><clipPath id="24d54d7a31"><path d="M 242.640625 298.484375 C 248.199219 312.058594 241.703125 327.574219 228.125 333.136719 C 214.546875 338.695312 199.03125 332.195312 193.472656 318.617188 C 187.910156 305.042969 194.410156 289.527344 207.988281 283.964844 C 221.566406 278.40625 237.078125 284.90625 242.640625 298.484375 Z M 242.640625 298.484375 " clip-rule="nonzero"/></clipPath><clipPath id="502b9389a9"><path d="M 157 284 L 226 284 L 226 354 L 157 354 Z M 157 284 " clip-rule="nonzero"/></clipPath><clipPath id="e75eb12b38"><path d="M 157.019531 303.710938 L 206.566406 284.511719 L 225.769531 334.058594 L 176.21875 353.261719 Z M 157.019531 303.710938 " clip-rule="nonzero"/></clipPath><clipPath id="a4f5d48669"><path d="M 0 0.398438 L 68.839844 0.398438 L 68.839844 69.28125 L 0 69.28125 Z M 0 0.398438 " clip-rule="nonzero"/></clipPath><clipPath id="0ab126c1b4"><path d="M 0.0195312 19.710938 L 49.566406 0.511719 L 68.769531 50.058594 L 19.21875 69.261719 Z M 0.0195312 19.710938 " clip-rule="nonzero"/></clipPath><clipPath id="bab3f57167"><rect x="0" width="69" y="0" height="70"/></clipPath><clipPath id="7677971aa1"><path d="M 157 284 L 226 284 L 226 354 L 157 354 Z M 157 284 " clip-rule="nonzero"/></clipPath><clipPath id="41f901d61e"><path d="M 157.019531 303.710938 L 206.671875 284.472656 L 225.914062 334.125 L 176.261719 353.363281 Z M 157.019531 303.710938 " clip-rule="nonzero"/></clipPath><clipPath id="e1c7a7b6df"><path d="M 157.019531 303.710938 L 206.5625 284.511719 L 225.761719 334.054688 L 176.21875 353.253906 Z M 157.019531 303.710938 " clip-rule="nonzero"/></clipPath><clipPath id="b6aaba9fe2"><path d="M 165 291 L 225 291 L 225 347 L 165 347 Z M 165 291 " clip-rule="nonzero"/></clipPath><clipPath id="ce930e5995"><path d="M 165.378906 308.457031 L 210.21875 291.082031 L 224.851562 328.84375 L 180.015625 346.21875 Z M 165.378906 308.457031 " clip-rule="nonzero"/></clipPath><clipPath id="c311c91ad8"><path d="M 0.359375 0 L 59.878906 0 L 59.878906 55.320312 L 0.359375 55.320312 Z M 0.359375 0 " clip-rule="nonzero"/></clipPath><clipPath id="56483f4478"><path d="M 0.378906 17.457031 L 45.21875 0.0820312 L 59.851562 37.84375 L 15.015625 55.21875 Z M 0.378906 17.457031 " clip-rule="nonzero"/></clipPath><clipPath id="941e69807f"><rect x="0" width="60" y="0" height="56"/></clipPath><clipPath id="2760fcb3fa"><path d="M 109 314 L 163 314 L 163 368 L 109 368 Z M 109 314 " clip-rule="nonzero"/></clipPath><clipPath id="234d8c4226"><path d="M 169.96875 355.792969 L 120.417969 374.996094 L 101.21875 325.449219 L 150.765625 306.246094 Z M 169.96875 355.792969 " clip-rule="nonzero"/></clipPath><clipPath id="c70111f7eb"><path d="M 145.191406 365.394531 C 131.511719 370.695312 116.121094 363.902344 110.816406 350.222656 C 105.515625 336.539062 112.308594 321.148438 125.992188 315.847656 C 139.675781 310.542969 155.0625 317.339844 160.367188 331.019531 C 165.667969 344.703125 158.875 360.09375 145.191406 365.394531 Z M 145.191406 365.394531 " clip-rule="nonzero"/></clipPath><clipPath id="453a39ef14"><path d="M 0 0 L 54 0 L 54 54 L 0 54 Z M 0 0 " clip-rule="nonzero"/></clipPath><clipPath id="8ffe97d65b"><path d="M 60.96875 41.792969 L 11.417969 60.996094 L -7.78125 11.449219 L 41.765625 -7.753906 Z M 60.96875 41.792969 " clip-rule="nonzero"/></clipPath><clipPath id="c182c4b24e"><path d="M 36.191406 51.394531 C 22.511719 56.695312 7.121094 49.902344 1.816406 36.222656 C -3.484375 22.539062 3.308594 7.148438 16.992188 1.847656 C 30.675781 -3.457031 46.0625 3.339844 51.367188 17.019531 C 56.667969 30.703125 49.875 46.09375 36.191406 51.394531 Z M 36.191406 51.394531 " clip-rule="nonzero"/></clipPath><clipPath id="46b1c7b301"><rect x="0" width="54" y="0" height="54"/></clipPath><clipPath id="573e08e588"><path d="M 127 299 L 188 299 L 188 365 L 127 365 Z M 127 299 " clip-rule="nonzero"/></clipPath><clipPath id="df2c0e81b9"><path d="M 187.171875 349.128906 L 147.089844 364.660156 L 127.886719 315.113281 L 167.96875 299.582031 Z M 187.171875 349.128906 " clip-rule="nonzero"/></clipPath><clipPath id="d298e064f5"><path d="M 0.679688 0.519531 L 60.199219 0.519531 L 60.199219 65.800781 L 0.679688 65.800781 Z M 0.679688 0.519531 " clip-rule="nonzero"/></clipPath><clipPath id="88e252f9bc"><path d="M 60.171875 50.128906 L 20.089844 65.660156 L 0.886719 16.113281 L 40.96875 0.582031 Z M 60.171875 50.128906 " clip-rule="nonzero"/></clipPath><clipPath id="9f1dd68d4f"><rect x="0" width="61" y="0" height="66"/></clipPath><clipPath id="7fa706f6e8"><path d="M 185 263 L 239 263 L 239 317 L 185 317 Z M 185 263 " clip-rule="nonzero"/></clipPath><clipPath id="dfa93937fe"><path d="M 177.296875 304.191406 L 198.457031 255.449219 L 247.199219 276.605469 L 226.042969 325.351562 Z M 177.296875 304.191406 " clip-rule="nonzero"/></clipPath><clipPath id="d4b8a7508c"><path d="M 187.878906 279.820312 C 193.71875 266.359375 209.367188 260.183594 222.828125 266.027344 C 236.289062 271.871094 242.464844 287.519531 236.621094 300.980469 C 230.777344 314.441406 215.128906 320.613281 201.671875 314.773438 C 188.210938 308.929688 182.035156 293.28125 187.878906 279.820312 Z M 187.878906 279.820312 " clip-rule="nonzero"/></clipPath><clipPath id="655df5c725"><path d="M 0 0 L 54 0 L 54 54 L 0 54 Z M 0 0 " clip-rule="nonzero"/></clipPath><clipPath id="228c2c4ffd"><path d="M -7.703125 41.191406 L 13.457031 -7.550781 L 62.199219 13.605469 L 41.042969 62.351562 Z M -7.703125 41.191406 " clip-rule="nonzero"/></clipPath><clipPath id="205a27cf8c"><path d="M 2.878906 16.820312 C 8.71875 3.359375 24.367188 -2.816406 37.828125 3.027344 C 51.289062 8.871094 57.464844 24.519531 51.621094 37.980469 C 45.777344 51.441406 30.128906 57.613281 16.671875 51.773438 C 3.210938 45.929688 -2.964844 30.28125 2.878906 16.820312 Z M 2.878906 16.820312 " clip-rule="nonzero"/></clipPath><clipPath id="bc955ffb69"><rect x="0" width="54" y="0" height="54"/></clipPath><clipPath id="dce5029ff7"><path d="M 185 263 L 239 263 L 239 317 L 185 317 Z M 185 263 " clip-rule="nonzero"/></clipPath><clipPath id="07844fe895"><path d="M 177.296875 304.191406 L 198.5 255.347656 L 247.347656 276.550781 L 226.144531 325.394531 Z M 177.296875 304.191406 " clip-rule="nonzero"/></clipPath><clipPath id="1fa1c284fa"><path d="M 177.296875 304.191406 L 199.136719 253.875 L 249.453125 275.71875 L 227.613281 326.035156 Z M 177.296875 304.191406 " clip-rule="nonzero"/></clipPath><clipPath id="ae3efe9ff2"><path d="M 187.875 279.824219 C 193.71875 266.363281 209.363281 260.191406 222.824219 266.03125 C 236.28125 271.875 242.457031 287.519531 236.617188 300.980469 C 230.773438 314.4375 215.125 320.613281 201.667969 314.769531 C 188.207031 308.929688 182.035156 293.28125 187.875 279.824219 Z M 187.875 279.824219 " clip-rule="nonzero"/></clipPath><clipPath id="ae49ab3a18"><path d="M 203 267 L 274 267 L 274 338 L 203 338 Z M 203 267 " clip-rule="nonzero"/></clipPath><clipPath id="1411089883"><path d="M 251.382812 337.488281 L 203.050781 315.40625 L 225.128906 267.074219 L 273.464844 289.152344 Z M 251.382812 337.488281 " clip-rule="nonzero"/></clipPath><clipPath id="b18cafe3f6"><path d="M 0.0390625 0 L 70.601562 0 L 70.601562 70.679688 L 0.0390625 70.679688 Z M 0.0390625 0 " clip-rule="nonzero"/></clipPath><clipPath id="9f117efa2f"><path d="M 48.382812 70.488281 L 0.0507812 48.40625 L 22.128906 0.0742188 L 70.464844 22.152344 Z M 48.382812 70.488281 " clip-rule="nonzero"/></clipPath><clipPath id="5cfbbaa78b"><rect x="0" width="71" y="0" height="71"/></clipPath><clipPath id="8fea39ec3f"><path d="M 203 267 L 274 267 L 274 338 L 203 338 Z M 203 267 " clip-rule="nonzero"/></clipPath><clipPath id="4c7066144f"><path d="M 251.382812 337.488281 L 202.949219 315.363281 L 225.074219 266.925781 L 273.511719 289.050781 Z M 251.382812 337.488281 " clip-rule="nonzero"/></clipPath><clipPath id="d495770b8e"><path d="M 251.382812 337.488281 L 203.054688 315.410156 L 225.132812 267.082031 L 273.460938 289.160156 Z M 251.382812 337.488281 " clip-rule="nonzero"/></clipPath><clipPath id="259cc72a05"><path d="M 204 271 L 266 271 L 266 331 L 204 331 Z M 204 271 " clip-rule="nonzero"/></clipPath><clipPath id="827aac9366"><path d="M 248 330.265625 L 204.261719 310.285156 L 222.019531 271.40625 L 265.757812 291.386719 Z M 248 330.265625 " clip-rule="nonzero"/></clipPath><clipPath id="694b89e375"><path d="M 0.238281 0.199219 L 61.921875 0.199219 L 61.921875 59.480469 L 0.238281 59.480469 Z M 0.238281 0.199219 " clip-rule="nonzero"/></clipPath><clipPath id="10120e96fa"><path d="M 44 59.265625 L 0.261719 39.285156 L 18.019531 0.40625 L 61.757812 20.386719 Z M 44 59.265625 " clip-rule="nonzero"/></clipPath><clipPath id="6bc2002c90"><rect x="0" width="62" y="0" height="60"/></clipPath><clipPath id="3c3cd7f7e1"><path d="M 266 300 L 320 300 L 320 354 L 266 354 Z M 266 300 " clip-rule="nonzero"/></clipPath><clipPath id="a9164134a9"><path d="M 279.644531 291.863281 L 327.976562 313.945312 L 305.898438 362.277344 L 257.5625 340.199219 Z M 279.644531 291.863281 " clip-rule="nonzero"/></clipPath><clipPath id="48415da945"><path d="M 303.808594 302.902344 C 317.15625 309 323.035156 324.761719 316.9375 338.109375 C 310.839844 351.457031 295.078125 357.335938 281.730469 351.238281 C 268.382812 345.140625 262.503906 329.378906 268.601562 316.03125 C 274.699219 302.683594 290.460938 296.804688 303.808594 302.902344 Z M 303.808594 302.902344 " clip-rule="nonzero"/></clipPath><clipPath id="95032e1166"><path d="M 0 0 L 54 0 L 54 54 L 0 54 Z M 0 0 " clip-rule="nonzero"/></clipPath><clipPath id="5fef79f589"><path d="M 13.644531 -8.136719 L 61.976562 13.945312 L 39.898438 62.277344 L -8.4375 40.199219 Z M 13.644531 -8.136719 " clip-rule="nonzero"/></clipPath><clipPath id="cc061531c4"><path d="M 37.808594 2.902344 C 51.15625 9 57.035156 24.761719 50.9375 38.109375 C 44.839844 51.457031 29.078125 57.335938 15.730469 51.238281 C 2.382812 45.140625 -3.496094 29.378906 2.601562 16.03125 C 8.699219 2.683594 24.460938 -3.195312 37.808594 2.902344 Z M 37.808594 2.902344 " clip-rule="nonzero"/></clipPath><clipPath id="b79223fecb"><rect x="0" width="54" y="0" height="54"/></clipPath><clipPath id="5ef5da7ffe"><path d="M 240 284 L 302 284 L 302 351 L 240 351 Z M 240 284 " clip-rule="nonzero"/></clipPath><clipPath id="cbac3c20c8"><path d="M 262.867188 284.199219 L 301.964844 302.058594 L 279.882812 350.394531 L 240.785156 332.53125 Z M 262.867188 284.199219 " clip-rule="nonzero"/></clipPath><clipPath id="5e5089363a"><path d="M 0.71875 0.160156 L 62 0.160156 L 62 66.398438 L 0.71875 66.398438 Z M 0.71875 0.160156 " clip-rule="nonzero"/></clipPath><clipPath id="c07d61cfdc"><path d="M 22.867188 0.199219 L 61.964844 18.058594 L 39.882812 66.394531 L 0.785156 48.53125 Z M 22.867188 0.199219 " clip-rule="nonzero"/></clipPath><clipPath id="3569ffd6fb"><rect x="0" width="62" y="0" height="67"/></clipPath></defs><g clip-path="url(#314dc8b4cc)"><g clip-path="url(#ecf1e361f9)"><g clip-path="url(#4b19c8feb0)"><g transform="matrix(1, 0, 0, 1, 112, 249)"><g clip-path="url(#92f625e5ce)"><g clip-path="url(#35e8016006)"><g clip-path="url(#8cf3b4d7d0)"><g clip-path="url(#0f5dedad13)"><path fill="#ffffff" d="M 64.867188 30.324219 L 23.894531 64.160156 L -9.941406 23.1875 L 31.03125 -10.648438 Z M 64.867188 30.324219 " fill-opacity="1" fill-rule="nonzero"/></g></g></g></g></g></g></g></g><g clip-path="url(#3946e24d55)"><g clip-path="url(#959cf99a01)"><g clip-path="url(#ddcb4b9d3b)"><g clip-path="url(#664c00b2a7)"><path stroke-linecap="butt" transform="matrix(-0.578294, 0.477573, -0.477573, -0.578294, 176.868566, 279.32257)" fill="none" stroke-linejoin="miter" d="M 35.422716 0.00210535 C 54.985872 0.000518537 70.841716 15.857462 70.843302 35.420618 C 70.844889 54.983773 54.984629 70.843633 35.421474 70.84522 C 15.861635 70.842791 -0.00154167 54.986547 0.000187999 35.419375 C 0.00261712 15.859536 15.855545 0.00037568 35.422716 0.00210535 Z M 35.422716 0.00210535 " stroke="#000000" stroke-width="14" stroke-opacity="1" stroke-miterlimit="4"/></g></g></g></g><g clip-path="url(#3d10130f66)"><g clip-path="url(#40fb8a8bca)"><g transform="matrix(1, 0, 0, 1, 84, 216)"><g clip-path="url(#14637096ab)"><g clip-path="url(#6f97fa4537)"><g clip-path="url(#07b8cb9530)"><path fill="#ffffff" d="M 41.957031 0.0351562 L 75.007812 41.644531 L 33.402344 74.695312 L 0.347656 33.089844 Z M 41.957031 0.0351562 " fill-opacity="1" fill-rule="nonzero"/></g></g></g></g></g></g><g clip-path="url(#c4a9760784)"><g clip-path="url(#311f32d4b8)"><g clip-path="url(#cf2fc8c711)"><path stroke-linecap="butt" transform="matrix(0.466505, 0.587259, -0.587259, 0.466505, 125.956916, 216.035919)" fill="none" stroke-linejoin="miter" d="M -0.000700528 -0.000752345 L 70.846485 -0.00108547 L 70.84274 70.84286 L -0.000367407 70.846433 Z M -0.000700528 -0.000752345 " stroke="#000000" stroke-width="14" stroke-opacity="1" stroke-miterlimit="4"/></g></g></g><g clip-path="url(#5d2737e65d)"><g clip-path="url(#478093b1af)"><g transform="matrix(1, 0, 0, 1, 92, 224)"><g clip-path="url(#cefc65a476)"><g clip-path="url(#320dbc903d)"><g clip-path="url(#92ec832c21)"><path fill="#ffffff" d="M 33.59375 0.09375 L 63.46875 37.703125 L 30.039062 64.257812 L 0.164062 26.648438 Z M 33.59375 0.09375 " fill-opacity="1" fill-rule="nonzero"/></g></g></g></g></g></g><g clip-path="url(#ff4595ce38)"><g clip-path="url(#b293ea893e)"><g clip-path="url(#608ba05512)"><g transform="matrix(1, 0, 0, 1, 57, 179)"><g clip-path="url(#6806a1167c)"><g clip-path="url(#cd17d4640b)"><g clip-path="url(#d6b2450e48)"><g clip-path="url(#b9248f015c)"><path fill="#000000" d="M 23.070312 64.871094 L -9.980469 23.261719 L 31.628906 -9.789062 L 64.679688 31.816406 Z M 23.070312 64.871094 " fill-opacity="1" fill-rule="nonzero"/></g></g></g></g></g></g></g></g><g clip-path="url(#8dc1bc7c08)"><g clip-path="url(#7d299f9ad2)"><g transform="matrix(1, 0, 0, 1, 64, 191)"><g clip-path="url(#1ae6b964c6)"><g clip-path="url(#0299610a8b)"><g clip-path="url(#b05c301302)"><path fill="#000000" d="M 27.546875 67.316406 L 0.8125 33.65625 L 42.359375 0.652344 L 69.09375 34.3125 Z M 27.546875 67.316406 " fill-opacity="1" fill-rule="nonzero"/></g></g></g></g></g></g><g clip-path="url(#31e37a930b)"><g clip-path="url(#fe9260abf7)"><g transform="matrix(1, 0, 0, 1, 151, 64)"><g clip-path="url(#a3191a5702)"><g clip-path="url(#f55273e5db)"><g clip-path="url(#972682b091)"><path fill="#000000" d="M 0.296875 0.566406 L 159.886719 0.566406 L 159.886719 191.320312 L 0.296875 191.320312 Z M 0.296875 0.566406 " fill-opacity="1" fill-rule="nonzero"/></g></g></g></g></g></g><g clip-path="url(#dcb30a07e1)"><g transform="matrix(1, 0, 0, 1, 172, 54)"><g clip-path="url(#9b62574b53)"><g clip-path="url(#8d17fc4919)"><path fill="#000000" d="M 0.390625 0.953125 L 117.878906 0.953125 L 117.878906 54.09375 L 0.390625 54.09375 Z M 0.390625 0.953125 " fill-opacity="1" fill-rule="nonzero"/></g></g></g></g><g clip-path="url(#51a52b1cce)"><g clip-path="url(#babe8b9ec5)"><g transform="matrix(1, 0, 0, 1, 161, 0)"><g clip-path="url(#a10fe53b1c)"><g clip-path="url(#13c3b29574)"><g clip-path="url(#0b002cc3c0)"><path fill="#000000" d="M 0.945312 0 L 139.207031 0 L 139.207031 42.289062 L 0.945312 42.289062 Z M 0.945312 0 " fill-opacity="1" fill-rule="nonzero"/></g></g></g></g></g></g><path stroke-linecap="round" transform="matrix(0.381364, 0.645803, -0.645803, 0.381364, 208.543234, 107.862927)" fill="none" stroke-linejoin="miter" d="M 4.999703 28.224237 C 39.536692 -4.76631 74.066094 -4.741623 108.601363 28.306244 " stroke="#ffffff" stroke-width="7" stroke-opacity="1" stroke-miterlimit="4"/><path stroke-linecap="round" transform="matrix(0.290827, 0.691317, -0.691317, 0.290827, 218.605097, 150.11999)" fill="none" stroke-linejoin="miter" d="M 4.577346 8.773424 C 24.818288 1.732818 45.059155 1.743936 65.299949 8.806778 " stroke="#ffffff" stroke-width="7" stroke-opacity="1" stroke-miterlimit="4"/><path stroke-linecap="round" transform="matrix(-0.384106, -0.644176, 0.644176, -0.384106, 215.056061, 201.103141)" fill="none" stroke-linejoin="miter" d="M 4.999168 27.580209 C 38.883071 -4.553606 72.764074 -4.525945 106.649317 27.661385 " stroke="#ffffff" stroke-width="7" stroke-opacity="1" stroke-miterlimit="4"/><path stroke-linecap="round" transform="matrix(0.330992, -0.673011, 0.673011, 0.330992, 224.399858, 186.976437)" fill="none" stroke-linejoin="miter" d="M 4.581267 8.772649 C 24.817814 1.733823 45.061592 1.74347 65.29858 8.808486 " stroke="#ffffff" stroke-width="7" stroke-opacity="1" stroke-miterlimit="4"/><path stroke-linecap="round" transform="matrix(0.646007, -0.381019, 0.381019, 0.646007, 219.908236, 138.551417)" fill="none" stroke-linejoin="miter" d="M 4.939058 14.400957 C 28.404943 -0.154318 51.870723 -0.130906 75.332716 14.45693 " stroke="#ffffff" stroke-width="7" stroke-opacity="1" stroke-miterlimit="4"/><path stroke-linecap="round" transform="matrix(-0.394299, 0.637987, -0.637987, -0.394299, 289.949928, 125.303181)" fill="none" stroke-linejoin="miter" d="M 4.939342 21.580322 C 39.345296 -2.54926 73.74919 -2.529364 108.15376 21.64444 " stroke="#ffffff" stroke-width="7" stroke-opacity="1" stroke-miterlimit="4"/><path stroke-linecap="butt" transform="matrix(0.75, 0.00000000000839098, -0.00000000000839098, 0.75, 145.979131, 206.677354)" fill="none" stroke-linejoin="miter" d="M 0.00178378 5.497903 L 219.876798 5.497903 " stroke="#ffffff" stroke-width="11" stroke-opacity="1" stroke-miterlimit="4"/><path stroke-linecap="butt" transform="matrix(0.75, -0.0000000000103395, 0.0000000000103395, 0.75, 151.298666, 95.45697)" fill="none" stroke-linejoin="miter" d="M -0.00238769 5.500082 L 212.784085 5.500082 " stroke="#ffffff" stroke-width="11" stroke-opacity="1" stroke-miterlimit="4"/><g clip-path="url(#f8e2a69d69)"><g clip-path="url(#4ce529bfbf)"><g clip-path="url(#ae32ded86b)"><g transform="matrix(1, 0, 0, 1, 191, 281)"><g clip-path="url(#ecd7c0e16c)"><g clip-path="url(#3b6e2e68e4)"><g clip-path="url(#27f2c01b93)"><g clip-path="url(#fb880394dc)"><path fill="#ffffff" d="M 41.574219 -7.101562 L 61.710938 42.074219 L 12.535156 62.210938 L -7.601562 13.035156 Z M 41.574219 -7.101562 " fill-opacity="1" fill-rule="nonzero"/></g></g></g></g></g></g></g></g><g clip-path="url(#817cb955fa)"><g clip-path="url(#8b49831f36)"><g clip-path="url(#0a30868075)"><g clip-path="url(#24d54d7a31)"><path stroke-linecap="butt" transform="matrix(0.284236, 0.694053, -0.694053, 0.284236, 232.572294, 273.897932)" fill="none" stroke-linejoin="miter" d="M 35.424149 0.000724177 C 54.981809 0.00130873 70.84357 15.856847 70.845832 35.421301 C 70.843273 54.983781 54.982915 70.843569 35.420435 70.84101 C 15.860801 70.845245 0.00101338 54.984887 -0.00124802 35.420433 C 0.00131039 15.857953 15.859695 0.00298558 35.424149 0.000724177 Z M 35.424149 0.000724177 " stroke="#000000" stroke-width="14" stroke-opacity="1" stroke-miterlimit="4"/></g></g></g></g><g clip-path="url(#502b9389a9)"><g clip-path="url(#e75eb12b38)"><g transform="matrix(1, 0, 0, 1, 157, 284)"><g clip-path="url(#bab3f57167)"><g clip-path="url(#a4f5d48669)"><g clip-path="url(#0ab126c1b4)"><path fill="#ffffff" d="M 0.0195312 19.710938 L 49.566406 0.511719 L 68.769531 50.058594 L 19.21875 69.261719 Z M 0.0195312 19.710938 " fill-opacity="1" fill-rule="nonzero"/></g></g></g></g></g></g><g clip-path="url(#7677971aa1)"><g clip-path="url(#41f901d61e)"><g clip-path="url(#e1c7a7b6df)"><path stroke-linecap="butt" transform="matrix(0.699325, -0.271005, 0.271005, 0.699325, 157.019101, 303.712509)" fill="none" stroke-linejoin="miter" d="M 0.00129148 -0.00174648 L 70.845294 -0.00189971 L 70.845448 70.842103 L 0.00144471 70.842256 Z M 0.00129148 -0.00174648 " stroke="#000000" stroke-width="14" stroke-opacity="1" stroke-miterlimit="4"/></g></g></g><g clip-path="url(#b6aaba9fe2)"><g clip-path="url(#ce930e5995)"><g transform="matrix(1, 0, 0, 1, 165, 291)"><g clip-path="url(#941e69807f)"><g clip-path="url(#c311c91ad8)"><g clip-path="url(#56483f4478)"><path fill="#ffffff" d="M 0.378906 17.457031 L 45.222656 0.078125 L 59.855469 37.839844 L 15.015625 55.21875 Z M 0.378906 17.457031 " fill-opacity="1" fill-rule="nonzero"/></g></g></g></g></g></g><g clip-path="url(#2760fcb3fa)"><g clip-path="url(#234d8c4226)"><g clip-path="url(#c70111f7eb)"><g transform="matrix(1, 0, 0, 1, 109, 314)"><g clip-path="url(#46b1c7b301)"><g clip-path="url(#453a39ef14)"><g clip-path="url(#8ffe97d65b)"><g clip-path="url(#c182c4b24e)"><path fill="#000000" d="M 60.96875 41.792969 L 11.417969 60.996094 L -7.78125 11.449219 L 41.765625 -7.753906 Z M 60.96875 41.792969 " fill-opacity="1" fill-rule="nonzero"/></g></g></g></g></g></g></g></g><g clip-path="url(#573e08e588)"><g clip-path="url(#df2c0e81b9)"><g transform="matrix(1, 0, 0, 1, 127, 299)"><g clip-path="url(#9f1dd68d4f)"><g clip-path="url(#d298e064f5)"><g clip-path="url(#88e252f9bc)"><path fill="#000000" d="M 60.171875 50.128906 L 20.089844 65.660156 L 0.917969 16.1875 L 40.996094 0.652344 Z M 60.171875 50.128906 " fill-opacity="1" fill-rule="nonzero"/></g></g></g></g></g></g><g clip-path="url(#7fa706f6e8)"><g clip-path="url(#dfa93937fe)"><g clip-path="url(#d4b8a7508c)"><g transform="matrix(1, 0, 0, 1, 185, 263)"><g clip-path="url(#bc955ffb69)"><g clip-path="url(#655df5c725)"><g clip-path="url(#228c2c4ffd)"><g clip-path="url(#205a27cf8c)"><path fill="#ffffff" d="M -7.703125 41.191406 L 13.457031 -7.550781 L 62.199219 13.605469 L 41.042969 62.351562 Z M -7.703125 41.191406 " fill-opacity="1" fill-rule="nonzero"/></g></g></g></g></g></g></g></g><g clip-path="url(#dce5029ff7)"><g clip-path="url(#07844fe895)"><g clip-path="url(#1fa1c284fa)"><g clip-path="url(#ae3efe9ff2)"><path stroke-linecap="butt" transform="matrix(0.298629, -0.687983, 0.687983, 0.298629, 177.29809, 304.193241)" fill="none" stroke-linejoin="miter" d="M 35.42053 -0.00100357 C 54.986772 0.0000152111 70.841098 15.857919 70.844857 35.422087 C 70.841764 54.983552 54.985934 70.842655 35.421766 70.846414 C 15.860301 70.843321 -0.000875828 54.982713 0.00221677 35.421249 C -0.0015421 15.857081 15.86114 0.000681487 35.42053 -0.00100357 Z M 35.42053 -0.00100357 " stroke="#000000" stroke-width="14" stroke-opacity="1" stroke-miterlimit="4"/></g></g></g></g><g clip-path="url(#ae49ab3a18)"><g clip-path="url(#1411089883)"><g transform="matrix(1, 0, 0, 1, 203, 267)"><g clip-path="url(#5cfbbaa78b)"><g clip-path="url(#b18cafe3f6)"><g clip-path="url(#9f117efa2f)"><path fill="#ffffff" d="M 48.382812 70.488281 L 0.0507812 48.40625 L 22.128906 0.0742188 L 70.464844 22.152344 Z M 48.382812 70.488281 " fill-opacity="1" fill-rule="nonzero"/></g></g></g></g></g></g><g clip-path="url(#8fea39ec3f)"><g clip-path="url(#4c7066144f)"><g clip-path="url(#d495770b8e)"><path stroke-linecap="butt" transform="matrix(-0.682188, -0.31164, 0.31164, -0.682188, 251.383582, 337.487908)" fill="none" stroke-linejoin="miter" d="M 0.000726081 -0.000878478 L 70.843925 -0.0000380511 L 70.843084 70.84316 L -0.000114346 70.84232 Z M 0.000726081 -0.000878478 " stroke="#000000" stroke-width="14" stroke-opacity="1" stroke-miterlimit="4"/></g></g></g><g clip-path="url(#259cc72a05)"><g clip-path="url(#827aac9366)"><g transform="matrix(1, 0, 0, 1, 204, 271)"><g clip-path="url(#6bc2002c90)"><g clip-path="url(#694b89e375)"><g clip-path="url(#10120e96fa)"><path fill="#ffffff" d="M 44 59.265625 L 0.261719 39.285156 L 18.019531 0.40625 L 61.757812 20.386719 Z M 44 59.265625 " fill-opacity="1" fill-rule="nonzero"/></g></g></g></g></g></g><g clip-path="url(#3c3cd7f7e1)"><g clip-path="url(#a9164134a9)"><g clip-path="url(#48415da945)"><g transform="matrix(1, 0, 0, 1, 266, 300)"><g clip-path="url(#b79223fecb)"><g clip-path="url(#95032e1166)"><g clip-path="url(#5fef79f589)"><g clip-path="url(#cc061531c4)"><path fill="#000000" d="M 13.644531 -8.136719 L 61.976562 13.945312 L 39.898438 62.277344 L -8.4375 40.199219 Z M 13.644531 -8.136719 " fill-opacity="1" fill-rule="nonzero"/></g></g></g></g></g></g></g></g><g clip-path="url(#5ef5da7ffe)"><g clip-path="url(#cbac3c20c8)"><g transform="matrix(1, 0, 0, 1, 240, 284)"><g clip-path="url(#3569ffd6fb)"><g clip-path="url(#5e5089363a)"><g clip-path="url(#c07d61cfdc)"><path fill="#000000" d="M 22.867188 0.199219 L 61.964844 18.058594 L 39.917969 66.324219 L 0.816406 48.460938 Z M 22.867188 0.199219 " fill-opacity="1" fill-rule="nonzero"/></g></g></g></g></g></g></svg>